<?xml version="1.0" encoding="UTF-8" standalone="no"?>
<svg
   xmlns:dc="http://purl.org/dc/elements/1.1/"
   xmlns:cc="http://creativecommons.org/ns#"
   xmlns:rdf="http://www.w3.org/1999/02/22-rdf-syntax-ns#"
   xmlns:svg="http://www.w3.org/2000/svg"
   xmlns="http://www.w3.org/2000/svg"
   xmlns:sodipodi="http://sodipodi.sourceforge.net/DTD/sodipodi-0.dtd"
   xmlns:inkscape="http://www.inkscape.org/namespaces/inkscape"
   enable-background="new 0 0 64 64"
   height="64px"
   id="LAST"
   version="1.1"
   viewBox="0 0 64 64"
   width="64px"
   xml:space="preserve"
   inkscape:version="0.48.5 r10040"
   sodipodi:docname="next_clicked.svg"><metadata
     id="metadata11"><rdf:RDF><cc:Work
         rdf:about=""><dc:format>image/svg+xml</dc:format><dc:type
           rdf:resource="http://purl.org/dc/dcmitype/StillImage" /></cc:Work></rdf:RDF></metadata><defs
     id="defs9" /><sodipodi:namedview
     pagecolor="#ffffff"
     bordercolor="#666666"
     borderopacity="1"
     objecttolerance="10"
     gridtolerance="10"
     guidetolerance="10"
     inkscape:pageopacity="0"
     inkscape:pageshadow="2"
     inkscape:window-width="1600"
     inkscape:window-height="837"
     id="namedview7"
     showgrid="false"
     inkscape:zoom="12.41518"
     inkscape:cx="31.89957"
     inkscape:cy="31.994061"
     inkscape:window-x="0"
     inkscape:window-y="27"
     inkscape:window-maximized="1"
     inkscape:current-layer="LAST" /><path
     d="M32,5c14.888,0,27,12.112,27,27S46.888,59,32,59S5,46.888,5,32S17.112,5,32,5 M32,2C15.433,2,2,15.432,2,32  c0,16.568,13.433,30,30,30s30-13.432,30-30C62,15.432,48.567,2,32,2L32,2z"
     id="path3"
     style="fill:#069493;fill-opacity:0.92941177" /><path
     d="M38.5,17.563c-2.75,0-5,2.25-5,5v3.117l-7.988-5.257c-2.756-1.813-5.012-0.598-5.012,2.702V40  c0,3.3,2.259,4.521,5.021,2.714l7.979-5.222v3.945c0,2.75,2.25,5,5,5s5-2.25,5-5V22.563C43.5,19.813,41.25,17.563,38.5,17.563z   M40.5,28.285c0,1.1,0,2.591,0,3.313s0,2.213,0,3.313v6.527c0,1.1-0.9,2-2,2s-2-0.9-2-2v-3.909c0-1.1,0-2.807,0-3.792  c0-0.986-0.753-1.3-1.674-0.698l-9.652,6.318c-0.921,0.602-1.674,0.194-1.674-0.905V24.69c0-1.1,0.752-1.505,1.671-0.9l9.658,6.354  c0.919,0.604,1.671,0.292,1.671-0.695c0-0.988,0-2.696,0-3.796v-3.091c0-1.1,0.9-2,2-2s2,0.9,2,2V28.285z"
     id="path5"
     style="fill:#069493;fill-opacity:0.92941177" /><path
     style="fill:none;fill-opacity:0.83921570000000001;stroke:none"
     d="M 27.376295,58.433972 C 13.62416,55.917478 3.93705,43.160599 5.3429694,29.418455 6.9567857,13.644226 21.772764,2.5965425 37.137063,5.7108691 46.107634,7.5291947 53.909427,14.032161 56.95417,22.22887 c 1.530991,4.121556 1.637483,4.757009 1.637483,9.77113 0,3.794538 -0.09817,5.071897 -0.48979,6.372881 -1.396412,4.638989 -2.975189,7.700735 -5.600168,10.860505 -5.95443,7.167528 -16.044342,10.862321 -25.1254,9.200586 l 0,0 z M 39.83114,46.356575 c 1.274634,-0.353969 2.870731,-1.72694 3.355019,-2.886001 0.533014,-1.275683 0.533014,-21.665464 0,-22.941148 -0.800703,-1.916345 -3.451461,-3.397587 -5.419461,-3.028387 -2.698701,0.506279 -4.097892,2.27692 -4.441274,5.620323 l -0.213559,2.079357 -3.727155,-2.423046 c -2.049935,-1.332675 -4.087942,-2.609617 -4.528906,-2.837648 -1.199931,-0.620508 -2.567519,-0.525718 -3.457631,0.239655 l -0.760885,0.654256 -0.07201,10.396591 c -0.0685,9.889573 -0.04631,10.438311 0.454852,11.252068 0.582939,0.946539 1.68959,1.332177 2.998139,1.04477 0.442593,-0.09721 2.669712,-1.393312 4.949153,-2.880227 l 4.144438,-2.703485 0.192086,2.440548 c 0.287477,3.65255 1.102983,4.956103 3.674783,5.873987 1.25015,0.446184 1.56135,0.456917 2.852406,0.09839 z"
     id="path3755"
     inkscape:connector-curvature="0" /><path
     style="fill:none;stroke:none"
     d="M 29.40086,58.838475 C 19.534723,57.825289 11.06745,51.588012 7.1695615,42.462157 6.177202,40.138815 5.487059,37.468771 5.1789,34.760631 4.943308,32.690218 5.0729743,29.432579 5.4802694,27.189254 7.5390102,15.849998 16.730569,6.9847583 28.1461,5.3281072 c 4.471425,-0.6489047 8.981477,-0.1586741 13.367214,1.4529805 1.043512,0.383466 3.648305,1.6720513 4.634942,2.2928958 3.779151,2.3780435 6.753846,5.4150745 9.065184,9.2551495 0.534763,0.888458 1.53828,2.924145 1.846349,3.745415 0.987113,2.631508 1.5277,4.884488 1.778045,7.410283 0.09602,0.968775 0.120966,3.851425 0.03983,4.602868 -0.152597,1.413302 -0.226871,1.987269 -0.337237,2.606049 -1.494916,8.381484 -6.869743,15.563069 -14.526657,19.409824 -2.696894,1.354892 -5.332583,2.169053 -8.501255,2.62603 -1.046671,0.150947 -5.01378,0.221618 -6.111657,0.108873 l 0,0 z M 39.599883,46.352079 c 0.234759,-0.04829 0.734925,-0.234194 1.11148,-0.413116 0.923636,-0.43887 1.856528,-1.359727 2.289546,-2.260008 0.549296,-1.142034 0.526636,-0.639896 0.528185,-11.704433 0.0014,-9.686529 -0.0035,-10.014194 -0.157439,-10.616075 -0.677652,-2.649593 -3.262473,-4.27056 -5.922428,-3.714012 -1.761914,0.36865 -3.219828,1.716176 -3.790856,3.503828 -0.112208,0.351279 -0.15134,0.854928 -0.18899,2.432436 l -0.04748,1.989432 -4.214829,-2.77132 c -4.103254,-2.697956 -4.632522,-3.00434 -5.517898,-3.194219 -1.140687,-0.244634 -2.22991,0.271755 -2.753762,1.305528 -0.449471,0.88699 -0.438752,0.627692 -0.440043,10.644821 -8.46e-4,6.567765 0.02513,9.362153 0.08985,9.665586 0.455048,2.133476 2.149241,2.908158 4.208911,1.924557 0.359514,-0.171688 2.447837,-1.489962 4.640717,-2.929499 l 3.987055,-2.617339 0.04432,2.42729 0.04432,2.427291 0.239491,0.644372 c 0.305632,0.822332 0.715216,1.435659 1.364104,2.042663 0.558893,0.522817 1.451699,1.013913 2.151195,1.183284 0.533921,0.129281 1.772128,0.144626 2.334545,0.02893 z"
     id="path3784"
     inkscape:connector-curvature="0" /><path
     style="fill:#646464;fill-opacity:0.49803922;stroke:none"
     d="M 29.40086,58.838475 C 19.534723,57.825289 11.06745,51.588012 7.1695615,42.462157 6.177202,40.138815 5.487059,37.468771 5.1789,34.760631 4.943308,32.690218 5.0729743,29.432579 5.4802694,27.189254 7.5390102,15.849998 16.730569,6.9847583 28.1461,5.3281072 c 4.471425,-0.6489047 8.981477,-0.1586741 13.367214,1.4529805 1.043512,0.383466 3.648305,1.6720513 4.634942,2.2928958 3.779151,2.3780435 6.753846,5.4150745 9.065184,9.2551495 0.534763,0.888458 1.53828,2.924145 1.846349,3.745415 0.987113,2.631508 1.5277,4.884488 1.778045,7.410283 0.09602,0.968775 0.120966,3.851425 0.03983,4.602868 -0.152597,1.413302 -0.226871,1.987269 -0.337237,2.606049 -1.494916,8.381484 -6.869743,15.563069 -14.526657,19.409824 -2.696894,1.354892 -5.332583,2.169053 -8.501255,2.62603 -1.046671,0.150947 -5.01378,0.221618 -6.111657,0.108873 l 0,0 z M 39.599883,46.352079 c 0.234759,-0.04829 0.734925,-0.234194 1.11148,-0.413116 0.923636,-0.43887 1.856528,-1.359727 2.289546,-2.260008 0.549296,-1.142034 0.526636,-0.639896 0.528185,-11.704433 0.0014,-9.686529 -0.0035,-10.014194 -0.157439,-10.616075 -0.677652,-2.649593 -3.262473,-4.27056 -5.922428,-3.714012 -1.761914,0.36865 -3.219828,1.716176 -3.790856,3.503828 -0.112208,0.351279 -0.15134,0.854928 -0.18899,2.432436 l -0.04748,1.989432 -4.214829,-2.77132 c -4.103254,-2.697956 -4.632522,-3.00434 -5.517898,-3.194219 -1.140687,-0.244634 -2.22991,0.271755 -2.753762,1.305528 -0.449471,0.88699 -0.438752,0.627692 -0.440043,10.644821 -8.46e-4,6.567765 0.02513,9.362153 0.08985,9.665586 0.455048,2.133476 2.149241,2.908158 4.208911,1.924557 0.359514,-0.171688 2.447837,-1.489962 4.640717,-2.929499 l 3.987055,-2.617339 0.04432,2.42729 0.04432,2.427291 0.239491,0.644372 c 0.305632,0.822332 0.715216,1.435659 1.364104,2.042663 0.558893,0.522817 1.451699,1.013913 2.151195,1.183284 0.533921,0.129281 1.772128,0.144626 2.334545,0.02893 z"
     id="path3788"
     inkscape:connector-curvature="0" /><path
     style="fill:#646464;fill-opacity:0.49803922;stroke:none"
     d="m 37.687575,43.188469 c -0.223313,-0.103988 -0.509711,-0.312048 -0.636441,-0.462356 -0.500417,-0.593519 -0.484199,-0.433699 -0.528192,-5.205018 l -0.04027,-4.367907 -0.216621,-0.216535 c -0.263223,-0.263116 -0.759852,-0.292948 -1.192944,-0.07166 -0.155052,0.07922 -2.471367,1.576291 -5.147365,3.326815 -2.675998,1.750525 -5.004426,3.237362 -5.174283,3.304085 -0.39184,0.153918 -0.753025,0.06194 -0.986946,-0.251337 -0.168665,-0.225882 -0.169379,-0.253557 -0.193306,-7.490166 -0.01653,-4.998014 0.0029,-7.356306 0.06235,-7.561175 0.168644,-0.581377 0.68784,-0.775012 1.274947,-0.475492 0.165017,0.08418 2.48432,1.590662 5.154007,3.347726 2.669687,1.757065 4.978667,3.246761 5.131066,3.310438 0.329725,0.137768 0.60834,0.147249 0.866777,0.0295 0.424654,-0.193485 0.419315,-0.14289 0.462592,-4.384056 0.03923,-3.844815 0.04475,-3.955132 0.213406,-4.270023 0.386807,-0.722177 1.004066,-1.112909 1.761609,-1.115115 0.873021,-0.0025 1.645487,0.588513 1.881853,1.439908 0.0627,0.225833 0.08915,3.171623 0.08946,9.963064 4.03e-4,9.441882 -0.0029,9.651373 -0.160448,10.072466 -0.396612,1.060041 -1.597707,1.553464 -2.621251,1.07684 l 0,0 z"
     id="path3790"
     inkscape:connector-curvature="0" /></svg>