<?xml version="1.0" encoding="UTF-8" standalone="no"?>
<svg
   xmlns:dc="http://purl.org/dc/elements/1.1/"
   xmlns:cc="http://creativecommons.org/ns#"
   xmlns:rdf="http://www.w3.org/1999/02/22-rdf-syntax-ns#"
   xmlns:svg="http://www.w3.org/2000/svg"
   xmlns="http://www.w3.org/2000/svg"
   xmlns:sodipodi="http://sodipodi.sourceforge.net/DTD/sodipodi-0.dtd"
   xmlns:inkscape="http://www.inkscape.org/namespaces/inkscape"
   enable-background="new 0 0 64 64"
   height="64px"
   id="PAUSE"
   version="1.1"
   viewBox="0 0 64 64"
   width="64px"
   xml:space="preserve"
   inkscape:version="0.48.5 r10040"
   sodipodi:docname="pause_clicked.svg"><metadata
     id="metadata3001"><rdf:RDF><cc:Work
         rdf:about=""><dc:format>image/svg+xml</dc:format><dc:type
           rdf:resource="http://purl.org/dc/dcmitype/StillImage" /></cc:Work></rdf:RDF></metadata><defs
     id="defs2999" /><sodipodi:namedview
     pagecolor="#ffffff"
     bordercolor="#666666"
     borderopacity="1"
     objecttolerance="10"
     gridtolerance="10"
     guidetolerance="10"
     inkscape:pageopacity="0"
     inkscape:pageshadow="2"
     inkscape:window-width="1600"
     inkscape:window-height="837"
     id="namedview2997"
     showgrid="false"
     inkscape:zoom="3.6875"
     inkscape:cx="-16.135593"
     inkscape:cy="32"
     inkscape:window-x="0"
     inkscape:window-y="27"
     inkscape:window-maximized="1"
     inkscape:current-layer="PAUSE" /><path
     d="M32,5c14.888,0,27,12.112,27,27S46.888,59,32,59S5,46.888,5,32S17.112,5,32,5 M32,2C15.433,2,2,15.432,2,32  c0,16.568,13.433,30,30,30s30-13.432,30-30C62,15.432,48.567,2,32,2L32,2z"
     id="path2989"
     style="fill:#069493;fill-opacity:0.92941177" /><g
     id="g2991"
     style="fill:#069493;fill-opacity:0.92941177"><path
       d="M39,17.563c-2.75,0-5,2.25-5,5v18.875c0,2.75,2.25,5,5,5s5-2.25,5-5V22.563C44,19.813,41.75,17.563,39,17.563z M41,41.438   c0,1.1-0.9,2-2,2s-2-0.9-2-2V22.563c0-1.1,0.9-2,2-2s2,0.9,2,2V41.438z"
       id="path2993"
       style="fill:#069493;fill-opacity:0.92941177" /><path
       d="M25,17.563c-2.75,0-5,2.25-5,5v18.875c0,2.75,2.25,5,5,5s5-2.25,5-5V22.563C30,19.813,27.75,17.563,25,17.563z M27,41.438   c0,1.1-0.9,2-2,2s-2-0.9-2-2V22.563c0-1.1,0.9-2,2-2s2,0.9,2,2V41.438z"
       id="path2995"
       style="fill:#069493;fill-opacity:0.92941177" /></g><path
     style="fill:#646464;fill-opacity:0.49803922;stroke:none"
     d="M 23.725556,42.627251 C 23.195538,42.097233 23.181958,41.78961 23.250979,31.876763 l 0.07105,-10.204856 0.728491,-0.543805 c 0.641216,-0.478655 0.827887,-0.502633 1.558148,-0.200149 1.332332,0.55187 1.415955,1.292029 1.322806,11.70833 -0.07863,8.792673 -0.117173,9.432214 -0.600628,9.966102 -0.656554,0.725043 -1.893314,0.736847 -2.605295,0.02486 l 0,1e-6 z"
     id="path3775"
     inkscape:connector-curvature="0" /><path
     style="fill:#646464;fill-opacity:0.49803922;stroke:none"
     d="m 37.669149,42.602385 c -0.483455,-0.533888 -0.521998,-1.173429 -0.600628,-9.966102 -0.09315,-10.416301 -0.0095,-11.15646 1.322806,-11.70833 0.730261,-0.302484 0.916932,-0.278506 1.558148,0.200149 l 0.728491,0.543805 0.07106,10.204856 c 0.06902,9.912847 0.05544,10.22047 -0.474577,10.750488 -0.711981,0.711981 -1.94874,0.700177 -2.605295,-0.02486 l 0,-1e-6 z"
     id="path3777"
     inkscape:connector-curvature="0" /><path
     style="fill:#646464;fill-opacity:0.49803922;stroke:none"
     d="M 27.921247,58.509109 C 18.111662,56.984331 9.7622735,49.932683 6.5517014,40.461017 4.3611702,33.998622 4.8843261,26.330099 7.9300009,20.257627 11.630257,12.880051 17.567985,8.11624 25.898305,5.8417419 c 2.499126,-0.6823574 9.704266,-0.6823574 12.20339,0 10.911783,2.9793369 18.407512,10.9508981 20.345226,21.6367561 0.394682,2.176532 0.393329,6.596523 -0.0028,9.050316 -1.80048,11.153803 -11.103735,20.23581 -22.511949,21.976574 -3.043018,0.464331 -5.041677,0.465259 -8.010957,0.0037 l -2e-6,5e-6 z M 27.640106,45.775745 c 0.647385,-0.379392 1.393354,-1.143723 1.786538,-1.830508 l 0.675051,-1.179135 0.08336,-9.848179 c 0.09267,-10.948904 -0.03492,-12.258553 -1.338946,-13.743759 -2.338993,-2.663965 -6.839046,-2.082221 -8.37089,1.082146 -0.542886,1.121453 -0.558358,1.509706 -0.484113,12.148254 l 0.0767,10.989779 0.832841,1.041812 c 1.11354,1.392941 2.361462,1.990025 4.160282,1.990543 1.060837,2.71e-4 1.775816,-0.180149 2.579186,-0.650953 z m 13.696545,0.176377 c 0.511428,-0.260786 1.304648,-0.942972 1.762712,-1.515967 l 0.83284,-1.041812 0.0767,-10.989779 c 0.07424,-10.638548 0.05877,-11.026801 -0.484113,-12.148254 -1.531846,-3.164367 -6.031897,-3.746111 -8.370891,-1.082146 -1.304027,1.485206 -1.431618,2.794855 -1.338945,13.743759 l 0.08335,9.848179 0.672285,1.174213 c 1.300192,2.270915 4.431824,3.202066 6.766061,2.011807 l 0,0 z"
     id="path3779"
     inkscape:connector-curvature="0" /></svg>