<?xml version="1.0" encoding="UTF-8" standalone="no"?>
<svg
   xmlns:dc="http://purl.org/dc/elements/1.1/"
   xmlns:cc="http://creativecommons.org/ns#"
   xmlns:rdf="http://www.w3.org/1999/02/22-rdf-syntax-ns#"
   xmlns:svg="http://www.w3.org/2000/svg"
   xmlns="http://www.w3.org/2000/svg"
   xmlns:sodipodi="http://sodipodi.sourceforge.net/DTD/sodipodi-0.dtd"
   xmlns:inkscape="http://www.inkscape.org/namespaces/inkscape"
   enable-background="new 0 0 64 64"
   height="64px"
   id="PAUSE"
   version="1.1"
   viewBox="0 0 64 64"
   width="64px"
   xml:space="preserve"
   inkscape:version="0.48.5 r10040"
   sodipodi:docname="pause.svg"><metadata
     id="metadata3001"><rdf:RDF><cc:Work
         rdf:about=""><dc:format>image/svg+xml</dc:format><dc:type
           rdf:resource="http://purl.org/dc/dcmitype/StillImage" /></cc:Work></rdf:RDF></metadata><defs
     id="defs2999" /><sodipodi:namedview
     pagecolor="#ffffff"
     bordercolor="#666666"
     borderopacity="1"
     objecttolerance="10"
     gridtolerance="10"
     guidetolerance="10"
     inkscape:pageopacity="0"
     inkscape:pageshadow="2"
     inkscape:window-width="797"
     inkscape:window-height="480"
     id="namedview2997"
     showgrid="false"
     inkscape:zoom="3.6875"
     inkscape:cx="32"
     inkscape:cy="32"
     inkscape:window-x="0"
     inkscape:window-y="27"
     inkscape:window-maximized="0"
     inkscape:current-layer="PAUSE" /><path
     d="M32,5c14.888,0,27,12.112,27,27S46.888,59,32,59S5,46.888,5,32S17.112,5,32,5 M32,2C15.433,2,2,15.432,2,32  c0,16.568,13.433,30,30,30s30-13.432,30-30C62,15.432,48.567,2,32,2L32,2z"
     id="path2989"
     style="fill:#ffffff;fill-opacity:1" /><g
     id="g2991"
     style="fill:#ffffff;fill-opacity:1"><path
       d="M39,17.563c-2.75,0-5,2.25-5,5v18.875c0,2.75,2.25,5,5,5s5-2.25,5-5V22.563C44,19.813,41.75,17.563,39,17.563z M41,41.438   c0,1.1-0.9,2-2,2s-2-0.9-2-2V22.563c0-1.1,0.9-2,2-2s2,0.9,2,2V41.438z"
       id="path2993"
       style="fill:#ffffff;fill-opacity:1" /><path
       d="M25,17.563c-2.75,0-5,2.25-5,5v18.875c0,2.75,2.25,5,5,5s5-2.25,5-5V22.563C30,19.813,27.75,17.563,25,17.563z M27,41.438   c0,1.1-0.9,2-2,2s-2-0.9-2-2V22.563c0-1.1,0.9-2,2-2s2,0.9,2,2V41.438z"
       id="path2995"
       style="fill:#ffffff;fill-opacity:1" /></g></svg>