<?xml version="1.0" encoding="UTF-8" standalone="no"?>
<svg
   xmlns:dc="http://purl.org/dc/elements/1.1/"
   xmlns:cc="http://creativecommons.org/ns#"
   xmlns:rdf="http://www.w3.org/1999/02/22-rdf-syntax-ns#"
   xmlns:svg="http://www.w3.org/2000/svg"
   xmlns="http://www.w3.org/2000/svg"
   xmlns:sodipodi="http://sodipodi.sourceforge.net/DTD/sodipodi-0.dtd"
   xmlns:inkscape="http://www.inkscape.org/namespaces/inkscape"
   enable-background="new 0 0 64 64"
   height="64px"
   id="PLAY"
   version="1.1"
   viewBox="0 0 64 64"
   width="64px"
   xml:space="preserve"
   inkscape:version="0.48.5 r10040"
   sodipodi:docname="play.svg"><metadata
     id="metadata3012"><rdf:RDF><cc:Work
         rdf:about=""><dc:format>image/svg+xml</dc:format><dc:type
           rdf:resource="http://purl.org/dc/dcmitype/StillImage" /></cc:Work></rdf:RDF></metadata><defs
     id="defs3010" /><sodipodi:namedview
     pagecolor="#ffffff"
     bordercolor="#666666"
     borderopacity="1"
     objecttolerance="10"
     gridtolerance="10"
     guidetolerance="10"
     inkscape:pageopacity="0"
     inkscape:pageshadow="2"
     inkscape:window-width="797"
     inkscape:window-height="480"
     id="namedview3008"
     showgrid="false"
     inkscape:zoom="3.6875"
     inkscape:cx="32"
     inkscape:cy="32"
     inkscape:window-x="0"
     inkscape:window-y="27"
     inkscape:window-maximized="0"
     inkscape:current-layer="PLAY" /><path
     d="M32,5c14.888,0,27,12.112,27,27S46.888,59,32,59S5,46.888,5,32S17.112,5,32,5 M32,2C15.433,2,2,15.432,2,32  c0,16.568,13.433,30,30,30s30-13.432,30-30C62,15.432,48.567,2,32,2L32,2z"
     id="path3004"
     style="fill:#ffffff;fill-opacity:1" /><path
     d="M43.987,28.745L28.013,18.232C25.256,16.418,23,17.635,23,20.935V43.06c0,3.3,2.259,4.521,5.021,2.714l15.959-10.444  C46.741,33.521,46.744,30.559,43.987,28.745z M41.858,33.124l-14.185,9.283C26.753,43.01,26,42.603,26,41.503V22.491  c0-1.1,0.752-1.505,1.671-0.9l14.19,9.338C42.78,31.533,42.779,32.521,41.858,33.124z"
     id="path3006"
     style="fill:#ffffff;fill-opacity:1" /></svg>