<?xml version="1.0" encoding="UTF-8" standalone="no"?>
<svg
   xmlns:dc="http://purl.org/dc/elements/1.1/"
   xmlns:cc="http://creativecommons.org/ns#"
   xmlns:rdf="http://www.w3.org/1999/02/22-rdf-syntax-ns#"
   xmlns:svg="http://www.w3.org/2000/svg"
   xmlns="http://www.w3.org/2000/svg"
   xmlns:sodipodi="http://sodipodi.sourceforge.net/DTD/sodipodi-0.dtd"
   xmlns:inkscape="http://www.inkscape.org/namespaces/inkscape"
   enable-background="new 0 0 64 64"
   height="64px"
   id="PLAY"
   version="1.1"
   viewBox="0 0 64 64"
   width="64px"
   xml:space="preserve"
   inkscape:version="0.48.5 r10040"
   sodipodi:docname="play_clicked.svg"><metadata
     id="metadata3012"><rdf:RDF><cc:Work
         rdf:about=""><dc:format>image/svg+xml</dc:format><dc:type
           rdf:resource="http://purl.org/dc/dcmitype/StillImage" /></cc:Work></rdf:RDF></metadata><defs
     id="defs3010" /><sodipodi:namedview
     pagecolor="#ffffff"
     bordercolor="#666666"
     borderopacity="1"
     objecttolerance="10"
     gridtolerance="10"
     guidetolerance="10"
     inkscape:pageopacity="0"
     inkscape:pageshadow="2"
     inkscape:window-width="1600"
     inkscape:window-height="837"
     id="namedview3008"
     showgrid="false"
     inkscape:zoom="3.6875"
     inkscape:cx="-16.135593"
     inkscape:cy="32"
     inkscape:window-x="0"
     inkscape:window-y="27"
     inkscape:window-maximized="1"
     inkscape:current-layer="PLAY" /><path
     d="M32,5c14.888,0,27,12.112,27,27S46.888,59,32,59S5,46.888,5,32S17.112,5,32,5 M32,2C15.433,2,2,15.432,2,32  c0,16.568,13.433,30,30,30s30-13.432,30-30C62,15.432,48.567,2,32,2L32,2z"
     id="path3004"
     style="fill:#069493;fill-opacity:0.92941177" /><path
     d="M43.987,28.745L28.013,18.232C25.256,16.418,23,17.635,23,20.935V43.06c0,3.3,2.259,4.521,5.021,2.714l15.959-10.444  C46.741,33.521,46.744,30.559,43.987,28.745z M41.858,33.124l-14.185,9.283C26.753,43.01,26,42.603,26,41.503V22.491  c0-1.1,0.752-1.505,1.671-0.9l14.19,9.338C42.78,31.533,42.779,32.521,41.858,33.124z"
     id="path3006"
     style="fill:#069493;fill-opacity:0.92941177" /><path
     style="fill:#646464;fill-opacity:0.49803922;stroke:none"
     d="M 26.457169,42.243599 C 26.254196,41.999032 26.184901,38.741796 26.233952,31.751244 l 0.07113,-10.137685 0.577896,0.01807 c 0.708664,0.02215 15.179278,9.480829 15.405197,10.069564 0.08902,0.231987 0.0072,0.61097 -0.181804,0.842185 -0.372988,0.456265 -14.154521,9.595265 -14.900106,9.880764 -0.250112,0.09577 -0.587207,0.01453 -0.749099,-0.180538 z"
     id="path3771"
     inkscape:connector-curvature="0" /><path
     style="fill:#646464;fill-opacity:0.49803922;stroke:none"
     d="M 27.921247,58.509109 C 18.111662,56.984331 9.7622735,49.932683 6.5517014,40.461017 4.3611702,33.998622 4.8843261,26.330099 7.9300009,20.257627 11.630257,12.880051 17.567985,8.11624 25.898305,5.8417419 c 2.499126,-0.6823574 9.704266,-0.6823574 12.20339,0 10.911783,2.9793369 18.407512,10.9508981 20.345226,21.6367561 0.394682,2.176532 0.393329,6.596523 -0.0028,9.050316 -1.80048,11.153803 -11.103735,20.23581 -22.511949,21.976574 -3.043018,0.464331 -5.041677,0.465259 -8.010957,0.0037 l -2e-6,5e-6 z M 27.477734,46.18026 c 1.4936,-0.761977 16.310391,-10.482278 17.305436,-11.352933 0.46803,-0.409524 1.000497,-1.24368 1.183257,-1.853681 0.29219,-0.975239 0.265855,-1.259286 -0.218202,-2.353576 -0.522286,-1.180716 -0.982422,-1.529841 -8.979986,-6.81351 -4.636223,-3.062964 -8.801909,-5.76161 -9.257083,-5.996989 -0.501411,-0.25929 -1.318951,-0.395614 -2.074288,-0.345886 -1.000619,0.06588 -1.359142,0.233152 -1.81636,0.847452 -0.556883,0.748208 -0.571357,1.048016 -0.645285,13.36625 -0.06621,11.032172 -0.02223,12.713385 0.353235,13.504628 0.727392,1.532862 2.340587,1.920971 4.149276,0.998245 z"
     id="path3773"
     inkscape:connector-curvature="0" /></svg>