<?xml version="1.0" encoding="UTF-8" standalone="no"?>
<svg
   xmlns:dc="http://purl.org/dc/elements/1.1/"
   xmlns:cc="http://creativecommons.org/ns#"
   xmlns:rdf="http://www.w3.org/1999/02/22-rdf-syntax-ns#"
   xmlns:svg="http://www.w3.org/2000/svg"
   xmlns="http://www.w3.org/2000/svg"
   xmlns:sodipodi="http://sodipodi.sourceforge.net/DTD/sodipodi-0.dtd"
   xmlns:inkscape="http://www.inkscape.org/namespaces/inkscape"
   enable-background="new 0 0 64 64"
   height="64px"
   id="FIRST"
   version="1.1"
   viewBox="0 0 64 64"
   width="64px"
   xml:space="preserve"
   inkscape:version="0.48.5 r10040"
   sodipodi:docname="prev_clicked.svg"><metadata
     id="metadata3023"><rdf:RDF><cc:Work
         rdf:about=""><dc:format>image/svg+xml</dc:format><dc:type
           rdf:resource="http://purl.org/dc/dcmitype/StillImage" /></cc:Work></rdf:RDF></metadata><defs
     id="defs3021" /><sodipodi:namedview
     pagecolor="#ffffff"
     bordercolor="#666666"
     borderopacity="1"
     objecttolerance="10"
     gridtolerance="10"
     guidetolerance="10"
     inkscape:pageopacity="0"
     inkscape:pageshadow="2"
     inkscape:window-width="1600"
     inkscape:window-height="837"
     id="namedview3019"
     showgrid="false"
     inkscape:zoom="3.6875"
     inkscape:cx="-64.813559"
     inkscape:cy="32"
     inkscape:window-x="0"
     inkscape:window-y="27"
     inkscape:window-maximized="1"
     inkscape:current-layer="FIRST" /><path
     d="M32,5c14.888,0,27,12.112,27,27S46.888,59,32,59S5,46.888,5,32S17.112,5,32,5 M32,2C15.433,2,2,15.432,2,32  c0,16.568,13.433,30,30,30s30-13.432,30-30C62,15.432,48.567,2,32,2L32,2z"
     id="path3015"
     style="stroke:none;stroke-opacity:1;fill:#069493;fill-opacity:0.92888892" /><path
     d="M20.5,22.563v18.875c0,2.75,2.25,5,5,5s5-2.25,5-5v-3.945l7.979,5.222C41.241,44.521,43.5,43.3,43.5,40V23.125  c0-3.3-2.256-4.516-5.012-2.702L30.5,25.68v-3.117c0-2.75-2.25-5-5-5S20.5,19.813,20.5,22.563z M23.5,22.563c0-1.1,0.9-2,2-2  s2,0.9,2,2v3.091c0,1.1,0,2.808,0,3.796c0,0.987,0.752,1.3,1.671,0.695l9.658-6.354c0.919-0.604,1.671-0.199,1.671,0.9v13.761  c0,1.1-0.753,1.507-1.674,0.905l-9.652-6.318c-0.921-0.602-1.674-0.288-1.674,0.698c0,0.985,0,2.692,0,3.792v3.909c0,1.1-0.9,2-2,2  s-2-0.9-2-2V34.91c0-1.1,0-2.591,0-3.313s0-2.213,0-3.313V22.563z"
     id="path3017"
     style="fill:#069493;fill-opacity:0.92888892" /><path
     style="fill:#646464;fill-opacity:0.49803922;stroke:none"
     d="M 27.921247,58.509109 C 18.111662,56.984331 9.7622736,49.932683 6.5517015,40.461017 4.3611703,33.998622 4.8843263,26.330099 7.930001,20.257627 11.630257,12.880051 17.567985,8.11624 25.898305,5.8417419 c 2.499126,-0.6823574 9.704266,-0.6823574 12.20339,0 10.911783,2.9793369 18.407512,10.9508981 20.345226,21.6367561 0.394682,2.176532 0.393329,6.596523 -0.0028,9.050316 -1.80048,11.153803 -11.103734,20.23581 -22.511949,21.976574 -3.043018,0.464331 -5.041677,0.465259 -8.010956,0.0037 l -3e-6,5e-6 z M 27.611049,46.122796 c 0.77178,-0.39651 2.047816,-1.584624 2.440077,-2.271949 0.170244,-0.298305 0.373302,-1.78676 0.451239,-3.30768 l 0.141703,-2.765309 4.338983,2.83204 c 4.519588,2.94992 5.581079,3.386804 6.900746,2.840179 1.614769,-0.668859 1.668697,-1.088388 1.583284,-12.316546 l -0.07725,-10.15483 -0.65744,-0.69952 c -0.526088,-0.559758 -0.91254,-0.69952 -1.934224,-0.69952 -1.165003,0 -1.656678,0.249285 -5.616146,2.847458 -2.386653,1.566101 -4.414556,2.847457 -4.506456,2.847457 -0.0919,0 -0.16709,-0.920116 -0.16709,-2.044702 0,-2.516848 -0.609202,-3.87019 -2.222841,-4.938046 -0.922904,-0.610749 -1.429681,-0.746065 -2.794108,-0.746065 -1.364428,0 -1.871205,0.135316 -2.794109,0.746065 -0.620059,0.410336 -1.373859,1.229203 -1.67511,1.819705 -0.522134,1.023466 -0.547731,1.573909 -0.547731,11.778653 0,6.924428 0.102152,10.974622 0.289251,11.468431 0.354514,0.935664 1.207142,1.890506 2.287021,2.561193 0.931291,0.578403 3.5984,0.697123 4.560201,0.202986 l 0,0 z"
     id="path2997"
     inkscape:connector-curvature="0" /><path
     style="fill:#646464;fill-opacity:0.49803922;stroke:none"
     d="M 24.111383,42.537413 C 23.752431,41.989583 23.70482,40.50699 23.766149,31.786924 L 23.837288,21.671902 24.56578,21.1281 c 0.635824,-0.474628 0.831697,-0.501053 1.539836,-0.207732 0.446239,0.184838 0.905976,0.538456 1.021638,0.785817 0.115661,0.247361 0.276972,2.280256 0.358469,4.517544 l 0.148176,4.067796 0.813559,-0.002 c 0.583697,-0.0014 2.249729,-0.948431 5.89665,-3.351683 3.127556,-2.061001 5.24185,-3.28874 5.49576,-3.191306 0.358357,0.137514 0.40319,1.167084 0.340638,7.822649 -0.06513,6.929516 -0.115737,7.672713 -0.527911,7.751996 -0.250734,0.04823 -2.807493,-1.45033 -5.681687,-3.330134 -3.24497,-2.122302 -5.436407,-3.387688 -5.781408,-3.338318 -0.529163,0.07572 -0.562054,0.300778 -0.691195,4.729526 -0.11887,4.076519 -0.199307,4.720357 -0.6522,5.220339 -0.729606,0.805466 -2.187022,0.770747 -2.734722,-0.06515 z"
     id="path3769"
     inkscape:connector-curvature="0" /></svg>